<?xml version="1.0" encoding="utf-8"?>
<svg id="master-artboard" viewBox="0 0 150.30325317382812 207.76885986328125" version="1.1" xmlns="http://www.w3.org/2000/svg" x="0px" y="0px" style="enable-background:new 0 0 336 235.2;" width="150.30325317382812px" height="207.76885986328125px"><defs><radialGradient id="gradient-0" gradientUnits="objectBoundingBox" cx="0.5" cy="0.5" r="0.5">
                <stop offset="0" style="stop-color: #ffffff"/>
                <stop offset="1" style="stop-color: #cccccc"/>
              </radialGradient></defs><rect id="ee-background" x="0" y="0" width="150.30325317382812" height="207.76885986328125" style="fill: white; fill-opacity: 0; pointer-events: none;"/><g transform="matrix(0.18880025836029032, 0.07312785225793614, -0.38923462740411235, 1.0049124144872834, 63.981645141137676, 32.26802437569057)"><g id="g-3" transform="matrix(1, 0, 0, 1, 0, 0)">
	<g id="g-4">
		<path class="st0" d="M58,49h100v100H58V49z" style="fill: rgb(0, 0, 255); stroke-opacity: 1; paint-order: stroke; stroke: rgb(0, 0, 0); stroke-width: 7;"/>
	</g>
</g></g><g transform="matrix(-0.18880047525183555, 0.07312785225793615, 0.38923462740411235, 1.0049124144872834, 89.64585371994093, 32.137758349671145)"><g id="g-1" transform="matrix(1, 0, 0, 1, 0, 0)">
	<g id="g-2">
		<path class="st0" d="M58,49h100v100H58V49z" style="fill: rgb(0, 0, 255); stroke-opacity: 1; paint-order: stroke; stroke: rgb(0, 0, 0); stroke-width: 7;"/>
	</g>
</g></g><g transform="matrix(0.9442911312030425, 0, 0, 0.9442911312030425, -390.92870071875035, -162.10198091084794)"><g id="g-5" transform="matrix(1, 0, 0, 1, 0, 0)">
	<g id="g-6">
		<path class="st0" d="M545.4,220.1c-1.7-5.5-6.2-9.6-11.9-10.8c1-5.6-1.3-11.3-5.9-14.7c-5-3.8-11.7-4.3-17.2-1.4&#10;&#9;&#9;&#9;c-3.8-8-13.4-11.4-21.4-7.5c-2.9,1.4-5.3,3.6-7,6.4c-5.3-2.5-11.4-2-16.2,1.4c-4.7,3.2-7.2,8.8-6.5,14.4&#10;&#9;&#9;&#9;c-5.7,0.9-10.4,4.9-12.3,10.3c-1.8,5.4-0.5,11.3,3.5,15.4c-4,4-5.5,9.9-3.8,15.3c1.8,5.5,6.4,9.5,12.1,10.5&#10;&#9;&#9;&#9;c-0.8,5.6,1.6,11.3,6.2,14.6c4.7,3.4,10.8,4,16.1,1.7c4.3,7.8,14.1,10.6,21.9,6.3c2.5-1.4,4.5-3.4,6-5.8&#10;&#9;&#9;&#9;c5.2,2.6,11.4,2.2,16.2-1.1c4.8-3.1,7.4-8.7,6.8-14.3c5.7-0.8,10.5-4.7,12.5-10.1c2-5.3,0.7-11.3-3.2-15.5&#10;&#9;&#9;&#9;C545.4,231.4,547,225.5,545.4,220.1" style="fill: rgb(255, 255, 255); stroke: rgb(0, 0, 0); stroke-width: 3;"/>
	</g>
</g></g></svg>